<mxfile host="app.diagrams.net" agent="Mozilla/5.0 (Windows NT 10.0; Win64; x64) AppleWebKit/537.36 (KHTML, like Gecko) Chrome/129.0.0.0 Safari/537.36" version="24.7.17">
  <diagram name="Page-1" id="KRBMFYmKvGPiXsKwkznU">
    <mxGraphModel dx="890" dy="360" grid="1" gridSize="10" guides="1" tooltips="1" connect="1" arrows="1" fold="1" page="1" pageScale="1" pageWidth="850" pageHeight="1100" math="0" shadow="0">
      <root>
        <mxCell id="0" />
        <mxCell id="1" parent="0" />
        <mxCell id="GysLg-Z24zuPQwXTb1GC-4" style="edgeStyle=orthogonalEdgeStyle;rounded=0;orthogonalLoop=1;jettySize=auto;html=1;entryX=0.5;entryY=0;entryDx=0;entryDy=0;" edge="1" parent="1" source="GysLg-Z24zuPQwXTb1GC-1" target="GysLg-Z24zuPQwXTb1GC-3">
          <mxGeometry relative="1" as="geometry" />
        </mxCell>
        <mxCell id="GysLg-Z24zuPQwXTb1GC-1" value="&lt;font style=&quot;font-size: 14px;&quot;&gt;Початок&lt;/font&gt;" style="ellipse;whiteSpace=wrap;html=1;" vertex="1" parent="1">
          <mxGeometry x="325" y="80" width="130" height="50" as="geometry" />
        </mxCell>
        <mxCell id="GysLg-Z24zuPQwXTb1GC-6" value="" style="edgeStyle=orthogonalEdgeStyle;rounded=0;orthogonalLoop=1;jettySize=auto;html=1;" edge="1" parent="1" source="GysLg-Z24zuPQwXTb1GC-3" target="GysLg-Z24zuPQwXTb1GC-5">
          <mxGeometry relative="1" as="geometry" />
        </mxCell>
        <mxCell id="GysLg-Z24zuPQwXTb1GC-3" value="Розрахунок чисельника" style="rounded=1;whiteSpace=wrap;html=1;" vertex="1" parent="1">
          <mxGeometry x="320" y="180" width="140" height="40" as="geometry" />
        </mxCell>
        <mxCell id="GysLg-Z24zuPQwXTb1GC-8" value="" style="edgeStyle=orthogonalEdgeStyle;rounded=0;orthogonalLoop=1;jettySize=auto;html=1;" edge="1" parent="1" source="GysLg-Z24zuPQwXTb1GC-5" target="GysLg-Z24zuPQwXTb1GC-7">
          <mxGeometry relative="1" as="geometry" />
        </mxCell>
        <mxCell id="GysLg-Z24zuPQwXTb1GC-5" value="Розрахунок знаменника" style="rounded=1;whiteSpace=wrap;html=1;" vertex="1" parent="1">
          <mxGeometry x="320" y="260" width="140" height="40" as="geometry" />
        </mxCell>
        <mxCell id="GysLg-Z24zuPQwXTb1GC-10" value="" style="edgeStyle=orthogonalEdgeStyle;rounded=0;orthogonalLoop=1;jettySize=auto;html=1;" edge="1" parent="1" source="GysLg-Z24zuPQwXTb1GC-7" target="GysLg-Z24zuPQwXTb1GC-9">
          <mxGeometry relative="1" as="geometry" />
        </mxCell>
        <mxCell id="GysLg-Z24zuPQwXTb1GC-7" value="Ділення" style="rounded=1;whiteSpace=wrap;html=1;" vertex="1" parent="1">
          <mxGeometry x="320" y="330" width="140" height="40" as="geometry" />
        </mxCell>
        <mxCell id="GysLg-Z24zuPQwXTb1GC-12" value="" style="edgeStyle=orthogonalEdgeStyle;rounded=0;orthogonalLoop=1;jettySize=auto;html=1;" edge="1" parent="1" source="GysLg-Z24zuPQwXTb1GC-9" target="GysLg-Z24zuPQwXTb1GC-11">
          <mxGeometry relative="1" as="geometry" />
        </mxCell>
        <mxCell id="GysLg-Z24zuPQwXTb1GC-9" value="Вивід результату" style="shape=parallelogram;perimeter=parallelogramPerimeter;whiteSpace=wrap;html=1;fixedSize=1;" vertex="1" parent="1">
          <mxGeometry x="320" y="410" width="140" height="50" as="geometry" />
        </mxCell>
        <mxCell id="GysLg-Z24zuPQwXTb1GC-11" value="&lt;font style=&quot;font-size: 14px;&quot;&gt;Кінець&lt;/font&gt;" style="ellipse;whiteSpace=wrap;html=1;" vertex="1" parent="1">
          <mxGeometry x="330" y="510" width="120" height="50" as="geometry" />
        </mxCell>
      </root>
    </mxGraphModel>
  </diagram>
</mxfile>
